Coordinates
version=1
nRows=9
nColumns=63
inDegrees=yes

Units are S.I. units (second, meters, Newtons, ...)
If the header above contains a line with 'inDegrees', this indicates whether rotational values are in degrees (yes) or radians (no).

endheader
time	pelvis_tilt	pelvis_list	pelvis_rotation	pelvis_tx	pelvis_ty	pelvis_tz	hip_flexion_r	hip_adduction_r	hip_rotation_r	knee_angle_r	knee_angle_r_beta	ankle_angle_r	subtalar_angle_r	mtp_angle_r	hip_flexion_l	hip_adduction_l	hip_rotation_l	knee_angle_l	knee_angle_l_beta	ankle_angle_l	subtalar_angle_l	mtp_angle_l	L5_S1_Flex_Ext	L5_S1_Lat_Bending	L5_S1_axial_rotation	L4_L5_Flex_Ext	L4_L5_Lat_Bending	L4_L5_axial_rotation	L3_L4_Flex_Ext	L3_L4_Lat_Bending	L3_L4_axial_rotation	L2_L3_Flex_Ext	L2_L3_Lat_Bending	L2_L3_axial_rotation	L1_L2_Flex_Ext	L1_L2_Lat_Bending	L1_L2_axial_rotation	L1_T12_Flex_Ext	L1_T12_Lat_Bending	L1_T12_axial_rotation	Abs_r3	Abs_r2	Abs_r1	Abs_t1	Abs_t2	neck_flexion	neck_bending	neck_rotation	arm_flex_r	arm_add_r	arm_rot_r	elbow_flex_r	pro_sup_r	wrist_flex_r	wrist_dev_r	arm_flex_l	arm_add_l	arm_rot_l	elbow_flex_l	pro_sup_l	wrist_flex_l	wrist_dev_l
      2.88135593	      0.14481583	     -4.00653915	     84.92691311	      0.18211359	      0.92818122	      0.38506859	     -1.23205575	     -1.88260772	     13.80845861	      2.25418391	      0.03934293	     20.00593011	     -5.34201238	      0.00000000	     -1.45674104	     -0.99056690	    -16.66362588	      3.03709458	      0.05300730	     23.23426932	     13.73084753	      0.00000000	      0.13955781	      0.35380381	      0.81807547	      0.25917282	      0.47055907	      0.86920519	      0.22927953	      0.86023858	      0.86920519	      0.15950063	      0.86023858	      0.71581604	      0.12959339	      0.72147673	      0.66468632	      0.07974333	      0.54804210	      0.61355660	      0.99684751	      4.00229944	      4.54989034	      0.00000000	      0.00000000	     26.51745304	      0.40026139	      6.10856808	     17.36485233	     -7.99869768	     75.82330695	     38.35333252	     56.83743081	     -4.88933477	     -2.35378168	     18.49622990	     -6.51505338	     63.69538546	     40.77284421	     64.25403284	      2.70776368	      8.56372968
      2.89830508	      0.10780242	     -4.14901580	     85.02242915	      0.18175161	      0.92795025	      0.38576888	     -1.11751702	     -1.90905024	     15.26632950	      2.09875040	      0.03663010	     19.51110547	     -7.45405156	      0.00000000	     -1.12494536	     -1.00936396	    -17.23333440	      3.33639794	      0.05823113	     23.30366277	     14.52241921	      0.00000000	      0.15336737	      0.34335064	      0.80447310	      0.28481855	      0.45665634	      0.85475266	      0.25196726	      0.83482273	      0.85475266	      0.17528357	      0.83482273	      0.70391396	      0.14241694	      0.70016062	      0.65363439	      0.08763412	      0.53185013	      0.60335482	      1.09548781	      3.88405105	      4.47423802	      0.00000000	      0.00000000	     26.36790904	      0.31261277	      6.01689721	     17.64323556	     -8.29124624	     76.95727118	     39.39238829	     49.64273229	     -4.57529562	     -1.42620350	     18.45032160	     -6.66936488	     63.63543518	     40.98816939	     63.19322828	      3.42615219	      9.87333043
      2.91525424	      0.07082752	     -4.31481183	     85.10754231	      0.18138108	      0.92769944	      0.38649787	     -0.83686604	     -1.95726131	     14.66127470	      2.20632210	      0.03850758	     19.85122582	     -6.57283907	      0.00000000	     -0.84214250	     -0.97304246	    -16.96975645	      3.42316985	      0.05974558	     23.07492197	     14.20940515	      0.00000000	      0.17087214	      0.33162315	      0.83970740	      0.31732665	      0.44105879	      0.89218912	      0.28072584	      0.80630853	      0.89218912	      0.19528977	      0.80630853	      0.73474398	      0.15867187	      0.67624593	      0.68226227	      0.09763634	      0.51368426	      0.62978055	      1.22052261	      3.75138740	      4.67020067	      0.00000000	      0.00000000	     26.38246265	      0.22005527	      5.62466015	     17.90877828	     -8.76504557	     77.65530069	     40.69905679	     43.08156687	     -4.16723509	      0.06509188	     18.56544163	     -6.76256957	     64.07331816	     41.15670949	     62.60979899	      4.53205187	     11.18286355
      2.93220339	     -0.00498199	     -4.48447304	     85.09606992	      0.18124223	      0.92745067	      0.38727478	     -0.45796014	     -2.04580346	     13.50327477	      2.47637245	      0.04322085	     20.49027385	     -4.77209601	      0.00000000	     -0.55150716	     -0.90939310	    -16.89353406	      3.52926045	      0.06159722	     22.84691172	     14.03004686	      0.00000000	      0.18628076	      0.31038692	      0.95466078	      0.34594199	      0.41281460	      1.01432708	      0.30604065	      0.75467476	      1.01432708	      0.21290028	      0.75467476	      0.83532818	      0.17298031	      0.63294101	      0.77566188	      0.10644082	      0.48078934	      0.71599558	      1.33058481	      3.51115891	      5.30953685	      0.00000000	      0.00000000	     26.54729697	     -0.07992328	      4.61126604	     17.90875586	     -9.39912235	     77.24696953	     42.24061449	     38.09451895	     -3.99536174	      1.96475988	     18.89782542	     -6.84521583	     65.12884121	     41.39412270	     63.01719672	      5.54722137	     11.94173371
      2.94915254	     -0.10263426	     -4.62154416	     85.25399137	      0.18104308	      0.92725631	      0.38801980	     -0.22303151	     -2.12719230	     13.22388934	      2.58139447	      0.04505383	     20.70426469	     -4.61956583	      0.00000000	     -0.25373947	     -0.83426674	    -16.61722035	      3.67249947	      0.06409721	     22.64872921	     13.79678602	      0.00000000	      0.19626465	      0.28245277	      1.03890217	      0.36448308	      0.37566218	      1.10383355	      0.32244320	      0.68675566	      1.10383355	      0.22431087	      0.68675566	      0.90903940	      0.18225135	      0.57597769	      0.84410801	      0.11214562	      0.43751934	      0.77917663	      1.40189878	      3.19516221	      5.77806219	      0.00000000	      0.00000000	     26.72404106	     -0.40310833	      3.63579446	     18.22150435	    -10.05061956	     78.23945825	     43.99118123	     28.25877492	     -4.61300200	      2.87372576	     19.36283859	     -7.10051638	     66.64098308	     41.84914919	     63.58793520	      6.03673633	     11.94694075
      2.96610169	     -0.20918126	     -4.77131174	     85.38444488	      0.18089456	      0.92710572	      0.38872561	      0.08921029	     -2.22531954	     12.29337068	      2.83461083	      0.04947329	     21.17756895	     -3.50972129	      0.00000000	      0.04866245	     -0.75012289	    -16.32395060	      3.79809513	      0.06628927	     22.51440239	     13.51925917	      0.00000000	      0.20525379	      0.25340073	      1.13614422	      0.38117681	      0.33702297	      1.20715324	      0.33721145	      0.61611854	      1.20715324	      0.23458456	      0.61611854	      0.99412619	      0.19059867	      0.51673477	      0.92311718	      0.11728202	      0.39251773	      0.85210817	      1.46610730	      2.86651977	      6.31889332	      0.00000000	      0.00000000	     26.92618360	     -0.86113745	      2.63814858	     18.06780210	    -10.69824867	     77.72718911	     45.60434400	     22.37889480	     -5.48272537	      3.63751743	     19.89562667	     -7.36738859	     68.22461094	     42.37480724	     64.71783404	      6.19716910	     11.31837471
      2.98305085	     -0.33761794	     -4.91846297	     85.35068939	      0.18095909	      0.92700235	      0.38929275	      0.44234428	     -2.35101341	     11.35095112	      3.14986457	      0.05497551	     21.69642684	     -2.17404409	      0.00000000	      0.28247882	     -0.62686017	    -16.16662075	      3.82172634	      0.06670171	     22.43237174	     13.22668569	      0.00000000	      0.21658777	      0.22396599	      1.23195137	      0.40222516	      0.29787477	      1.30894833	      0.35583205	      0.54455091	      1.30894833	      0.24753817	      0.54455091	      1.07795745	      0.20112341	      0.45671145	      1.00096049	      0.12375825	      0.34692332	      0.92396353	      1.54706481	      2.53354807	      6.85174395	      0.00000000	      0.00000000	     27.09441340	     -1.31883809	      1.90538747	     17.68486005	    -11.19086291	     76.83222919	     46.79794642	     20.25747660	     -6.61763716	      3.49001956	     20.26272390	     -7.69586915	     69.34915653	     43.02857987	     65.78546053	      6.01827949	     10.70068526
      3.00000000	     -0.42360687	     -5.00894539	     85.76292129	      0.18046631	      0.92701524	      0.38976916	      0.61794165	     -2.46025338	      9.59915754	      3.34422128	      0.05836767	     22.18280794	     -0.36649330	      0.00000000	      0.53315631	     -0.54182557	    -15.20265005	      3.91513812	      0.06833205	     22.38285158	     12.47548095	      0.00000000	      0.22661319	      0.20416611	      1.18392743	      0.42084335	      0.27154093	      1.25792290	      0.37230281	      0.49640949	      1.25792290	      0.25899621	      0.49640949	      1.03593650	      0.21043301	      0.41633554	      0.96194104	      0.12948678	      0.31625331	      0.88794557	      1.61867535	      2.30956792	      6.58464920	      0.00000000	      0.00000000	     27.19495031	     -1.38220178	      2.35339201	     17.49387949	    -11.45479273	     76.36431671	     47.28275763	     21.35360458	     -6.92068280	      3.26434031	     20.61840110	     -8.09406040	     70.55200410	     43.59507258	     64.67534199	      5.76387828	     10.37103385
      3.01694915	     -0.57326679	     -5.08307597	     85.58203069	      0.18089464	      0.92710148	      0.39043315	      0.84135072	     -2.56419274	     10.17297070	      3.45867630	      0.06036529	     22.01023937	     -1.07173155	      0.00000000	      0.71496665	     -0.44576136	    -15.74111369	      4.05607389	      0.07079184	     22.46564836	     12.86421997	      0.00000000	      0.23447612	      0.17737979	      1.23483594	      0.43544561	      0.23591513	      1.31201318	      0.38522082	      0.43128123	      1.31201318	      0.26798276	      0.43128123	      1.08048144	      0.21773453	      0.36171288	      1.00330420	      0.13397966	      0.27476130	      0.92612695	      1.67483950	      2.00655572	      6.86778702	      0.00000000	      0.00000000	     27.25416862	     -1.41196199	      2.85261429	     17.48492701	    -11.60705453	     77.19954697	     48.08732920	     13.80889883	     -8.00232470	      1.24777896	     20.97236815	     -8.40555449	     71.60667291	     43.93063606	     64.95267564	      5.62324860	      9.46543788
